<svg width="469.56001586914067" height="63.67086207315842" viewBox="0 0 370 50.17083689177218" class="looka-1j8o68f"><defs id="SvgjsDefs1183"></defs><g id="SvgjsG1184" featurekey="Df7oLJ-0" transform="matrix(1.4698162729658795,0,0,1.4698162729658795,-1.4874540163776069,-11.070131076602486)" fill="#a9d2ff"><g xmlns="http://www.w3.org/2000/svg"><polygon fill="#a9d2ff" points="19.937,10.508 17.653,8.212 1.012,24.792 17.647,41.428 19.94,39.135 5.603,24.794  "></polygon><polygon fill="#a9d2ff" points="29.714,10.508 44.046,24.794 29.711,39.135 32.004,41.428 48.637,24.792 32.001,8.212  "></polygon></g></g><g id="SvgjsG1185" featurekey="Ua4uQk-0" transform="matrix(2.781088378359741,0,0,2.781088378359741,88.05323733947242,-16.019068369766444)" fill="#ffffff"><path d="M5.86 5.76 c2.52 0 4.06 1.56 4.82 2.88 l-2.36 1.42 c-0.78 -1 -1.46 -1.46 -2.46 -1.46 c-0.86 0 -1.5 0.5 -1.5 1.2 c0 0.72 0.4 1.08 1.4 1.42 l0.94 0.34 c3.26 1.14 4.38 2.58 4.38 4.44 c0 2.92 -2.76 4.3 -5.16 4.3 c-2.56 0 -4.52 -1.52 -5.22 -3.46 l2.46 -1.32 c0.5 0.9 1.24 1.88 2.76 1.88 c1.04 0 1.82 -0.42 1.82 -1.36 c0 -0.86 -0.48 -1.26 -1.98 -1.82 l-0.8 -0.28 c-2.06 -0.74 -3.8 -1.72 -3.8 -4.28 c0 -2.28 2.16 -3.9 4.7 -3.9 z M17.919999999999998 9.42 c1.9 0 3.5 0.8 4.48 2.48 l-2.4 1.14 c-0.52 -0.44 -0.94 -0.84 -2.04 -0.84 c-1.2 0 -2.42 0.92 -2.42 2.62 c0 1.68 1.22 2.56 2.42 2.56 c1.1 0 1.52 -0.36 2.04 -0.8 l2.44 1.14 c-1.02 1.68 -2.58 2.44 -4.52 2.44 c-2.32 0 -5.44 -1.66 -5.44 -5.34 c0 -3.62 3.12 -5.4 5.44 -5.4 z M30.74 9.44 c0.28 0 0.56 0 0.82 0.06 l0 3.02 c-0.24 -0.06 -0.52 -0.06 -0.72 -0.06 c-1.92 0 -3.46 1.38 -3.62 3.3 l0 4.24 l-3.16 0 l0 -10.4 l3.16 0 l0 2.54 c0.48 -1.56 1.68 -2.7 3.52 -2.7 z M36.339999999999996 5.859999999999999 l0 2.66 l-3.16 0 l0 -2.66 l3.16 0 z M36.339999999999996 9.6 l0 10.4 l-3.16 0 l0 -10.4 l3.16 0 z M44.22 9.42 c2.38 0 5.12 1.78 5.12 5.36 c0 3.72 -2.74 5.42 -5.12 5.42 c-1.6 0 -2.54 -0.88 -2.68 -1.24 l0 4.84 l-3.16 0 l0 -6.02 l0 -8.18 l3.16 0 l0 0.96 c0.14 -0.22 1.08 -1.14 2.68 -1.14 z M43.76 17.42 c1.36 0 2.52 -0.92 2.52 -2.64 c0 -1.66 -1.16 -2.58 -2.52 -2.58 c-1.3 0 -2.36 0.9 -2.36 2.58 c0 1.74 1.06 2.64 2.36 2.64 z M56.12 17.36 c0.56 0 0.96 -0.08 1.4 -0.2 l0 2.62 c-0.44 0.2 -1.16 0.34 -2.22 0.34 c-1.74 0 -3.2 -0.58 -3.2 -3.78 l0 -4.14 l-1.46 0 l0 -2.6 l1.46 0 l0 -2.44 l3.16 0 l0 2.44 l2.22 0 l0 2.6 l-2.22 0 l0 4.14 c0 0.46 0.12 1.02 0.86 1.02 z M73.34 12.219999999999999 c1.4 0.4 2.84 1.66 2.84 3.66 c0 2.56 -1.6 4.12 -5.1 4.12 l-5.7 0 l0 -14 l5.32 0 c2.94 0 4.42 1.66 4.42 3.54 c0 1.54 -1 2.32 -1.78 2.68 z M70.4 8.8 l-1.8 0 l0 2.5 l1.8 0 c1.14 0 1.52 -0.52 1.52 -1.26 c0 -0.8 -0.48 -1.24 -1.52 -1.24 z M70.9 17.2 c1.42 0 2.06 -0.6 2.06 -1.74 c0 -0.96 -0.64 -1.58 -2.22 -1.58 l-2.14 0 l0 3.32 l2.3 0 z M83.06 9.42 c2.36 0 5.48 1.78 5.48 5.42 c0 3.66 -3.12 5.36 -5.48 5.36 s-5.48 -1.7 -5.48 -5.36 c0 -3.64 3.12 -5.42 5.48 -5.42 z M83.06 12.2 c-1.2 0 -2.42 0.92 -2.42 2.64 c0 1.66 1.22 2.58 2.42 2.58 s2.44 -0.92 2.44 -2.58 c0 -1.72 -1.24 -2.64 -2.44 -2.64 z M97.76 20 l-2.16 -3.04 l-2.14 3.04 l-3.62 0 l3.94 -5.34 l-3.54 -5.06 l3.58 0 l1.78 2.78 l1.8 -2.78 l3.58 0 l-3.56 5.06 l3.96 5.34 l-3.62 0 z"></path></g></svg>